<?xml version="1.0" encoding="utf-8"?>
<!-- Generator: Adobe Illustrator 19.0.0, SVG Export Plug-In . SVG Version: 6.00 Build 0)  -->
<svg version="1.1" id="svg" xmlns="http://www.w3.org/2000/svg" xmlns:xlink="http://www.w3.org/1999/xlink" x="0px" y="0px"
	 viewBox="-105 239.5 400 314.5" style="enable-background:new -105 239.5 400 314.5;" xml:space="preserve">
<style type="text/css">
	.st0{fill:#060606;}
</style>
<g id="svgg">
	<path id="path1" class="st0" d="M176.7,261.2c-0.8,0.8-0.7,1,2.1,4c7.2,8,26.2,29.2,27,30c1.3,1.3,2.7,1.2,2.7-0.3
		c0-0.5,1.1,0.8-15.7-17.9C176.3,258.7,177.8,260.1,176.7,261.2 M24,269.8l0.1,0.5l3.6,0l3.6,0v-0.6v-0.6h-3.7H24L24,269.8
		 M14.4,270.1c-6.8,1.8-7,12.4-0.3,14.7c3.7,1.2,7.7-0.9,8.9-4.7C24.7,274,19.9,268.6,14.4,270.1 M18.5,272.1
		c3.1,1.5,3.8,7.4,1.1,9.9c-2.5,2.4-6.9,1.4-8-1.8C9.7,274.7,13.8,269.8,18.5,272.1 M-64.2,272.9c-7.5,1.6-7,14,0.6,14.9
		c4.6,0.6,8.1-2.6,8.1-7.5C-55.5,275.2-59.4,271.8-64.2,272.9 M-83.7,280.3v7.3h0.9h0.9l0-3.5l0-3.5l3.8,0l3.8,0v3.5v3.5h1h1v-7.3
		V273h-1h-1v3v3H-78h-3.8v-3v-3h-0.9h-0.9V280.3 M-60.4,274.8c4.1,2,3.8,9.9-0.5,11.1c-3.8,1.1-6.5-1.2-6.5-5.7
		C-67.4,275.6-64.1,273-60.4,274.8 M4.9,286.7c-0.4,0.4-3,3.1-5.7,6s-6.9,7.4-9.2,9.9c-6,6.5-5.9,6.3-5.1,7.2c0.9,1,0.9,1,7.8-6.5
		c3.5-3.7,7.9-8.5,9.9-10.6c5.2-5.6,5.1-5.5,4.3-6.3C6.3,285.8,5.8,285.8,4.9,286.7 M-54.1,289.6c-0.6,0.5-0.6,1.3-0.1,1.9
		c0.5,0.5,4.2,3.9,7.8,7.3c1.5,1.4,3.3,3.1,3.9,3.7c7.1,6.7,9.3,8.7,9.8,8.7c1.3,0,1.6-1.6,0.4-2.7c-0.4-0.4-2.4-2.2-4.3-4
		c-1.9-1.8-6.3-5.8-9.7-9C-53.4,288.7-53.2,288.9-54.1,289.6 M234.8,291.2v1.6h-1.5h-1.5v0.5v0.5h1.5h1.5l0,1.5l0,1.5l0.5,0.1
		l0.5,0.1v-1.6v-1.6h1.6h1.6v-0.5v-0.5l-1.5,0l-1.5,0l0-1.5l0-1.5h-0.6h-0.6V291.2 M265.4,293.2c-3.9,0.9-9,1.9-11.3,2.4
		c-14.7,3.1-14,2.9-13.3,4.4c0.4,0.9,0.6,0.9,8.8-0.9c0.9-0.2,4.4-0.9,7.8-1.7c3.4-0.7,7.1-1.5,8.3-1.8s2.3-0.5,2.8-0.6
		c1.6-0.3,4.6-1,4.9-1.1c0.6-0.2,0.8-1.5,0.3-1.9C273.1,291.6,272.5,291.7,265.4,293.2 M210.5,306v7.3h0.9h0.9v-5.7
		c0-3.1,0.1-5.6,0.1-5.6c0.1,0,1.8,2.6,3.9,5.7l3.7,5.6l1,0l1,0V306v-7.3h-1h-1l0,5.6l0,5.6l-3.8-5.6l-3.8-5.6l-1,0l-1,0V306
		 M225.3,306v7.3h1h1v-3.4v-3.4h3.8h3.8v3.4v3.4h1h1V306v-7.3h-1h-1v3v3h-3.8h-3.8v-3v-3h-1h-1V306 M-28.5,319.6v7.4h1h1v-2.9v-2.9
		l2.8-0.1c4.8-0.1,6.4-1.2,6.4-4.4c0-3.4-1.4-4.2-7.2-4.3l-4-0.1V319.6 M-20.6,314.4c0.9,0.4,1.3,1.2,1.2,2.5
		c-0.1,2-0.9,2.4-4.7,2.4h-2.4v-2.6v-2.6h2.7C-21.9,314.1-21,314.2-20.6,314.4 M211.2,317.4c-0.4,0.3-0.7,1.4-6.5,19.2
		c-1.1,3.4-2.6,8.1-3.3,10.3c-0.7,2.2-1.8,5.4-2.3,7.2c-1.5,4.6-1.5,4.7-1.8,4.8c-0.1,0-0.8,0.2-1.4,0.3c-1.6,0.3-15,3.2-22.5,4.8
		c-5.9,1.2-8,1.7-14.1,3c-1.2,0.3-4.9,1.1-8.2,1.8c-3.3,0.7-6.8,1.4-7.8,1.7c-1,0.2-1.9,0.5-2.1,0.6c-0.3,0.3-0.2,0-2.6,7.5
		c-1,3-2.8,8.7-4.1,12.6c-1.3,3.9-3.2,9.9-4.3,13.3c-1.1,3.4-3.1,9.5-4.4,13.4c-1.3,3.9-2.4,7.4-2.5,7.6c-0.1,0.4-0.5,0.6-14.3,5
		c-1.7,0.5-7.7,2.5-13.3,4.3c-5.7,1.9-11.1,3.6-12.1,3.9c-1,0.3-3.6,1.2-5.9,1.9c-2.3,0.8-5.1,1.7-6.3,2l-2.1,0.7l-1.7-1
		c-2.4-1.4-17.6-10.2-20.2-11.6c-2.1-1.2-10.1-5.8-21.1-12.2l-5.8-3.4l-0.1-21.4c0-11.8-0.1-21.5-0.2-21.7c-0.3-0.6-1.2-0.8-1.8-0.3
		l-0.4,0.3v21.5v21.5l-1.3,0.7c-1.8,1-26.7,15.4-37,21.4c-1.9,1.1-5.2,3-7.4,4.3c-2.2,1.3-4,2.4-4.1,2.5c-0.2,0.3-0.2,58.8-0.1,59.1
		c0.1,0.1,2.8,1.8,6.2,3.8c8,4.6,16,9.2,25.4,14.6c4.2,2.4,10.2,5.9,13.4,7.7c6.7,3.8,6,3.6,8.2,2.4c0.9-0.5,3.9-2.3,6.7-3.9
		c2.8-1.6,6.9-4,9.3-5.3c2.3-1.3,7.7-4.4,11.8-6.8c17-9.8,20.3-11.7,20.4-11.7c0.2,0,8.4,2.6,10.6,3.4c0.5,0.2,3.7,1.2,7.2,2.3
		c7.4,2.4,17.2,5.6,22.1,7.2c3.9,1.3,4.4,1.3,4.9,0.6c0.7-1,0.2-1.6-1.9-2.3c-1.7-0.5-18.7-6-25.2-8.2c-2.2-0.7-6.5-2.1-9.5-3.1
		c-3-1-5.9-1.9-6.3-2.1l-0.8-0.3v-28v-28l7.1-2.3c3.9-1.3,9.9-3.2,13.4-4.4c3.4-1.1,7.9-2.6,10-3.3c2.1-0.7,6.2-2,9.3-3
		c3-1,7.3-2.4,9.4-3.1l3.9-1.3l0.3,0.4c0.6,0.6,32.5,44.6,32.5,44.8c0,0.2-4.1,6-8.7,12.3c-0.3,0.4-1.4,2-2.5,3.5
		c-1.1,1.5-3.2,4.4-4.7,6.5c-2.5,3.4-5.4,7.4-6.8,9.4c-0.8,1.1-0.7,2.1,0.4,2.4c0.8,0.2,1.2-0.3,5.5-6.2c2.4-3.3,5.3-7.4,6.6-9.1
		c1.3-1.8,2.7-3.7,3.1-4.3c0.4-0.6,2.6-3.6,4.8-6.7c5.8-8,5.4-7.4,5.3-7.8c-0.1-0.2-2-2.9-4.2-6c-2.3-3.1-7.8-10.8-12.4-17
		c-4.5-6.2-10.2-14.1-12.6-17.4c-2.4-3.3-4.4-6.1-4.5-6.3c-0.1-0.2,1.4-5.1,3.8-12.1c0.3-1.1,1.4-4.3,2.3-7.2c0.9-2.9,2.3-7,3-9.3
		c1.5-4.5,4.6-14,6.7-20.8l1.4-4.4l0.9-0.2c0.5-0.1,4-0.9,7.9-1.7c3.9-0.8,10.6-2.2,14.9-3.2s8.9-1.9,10.2-2.2
		c1.2-0.3,5.8-1.2,10.2-2.2c4.4-0.9,8.9-1.9,10-2.1c2.6-0.5,2.5-0.4,3.6-3.8c0.5-1.5,1.4-4.2,1.9-5.8c0.5-1.6,2-6.2,3.3-10.2
		c1.3-3.9,3.2-10,4.4-13.4c1.1-3.4,2.3-7,2.6-8c0.7-2.1,0.7-2.2,0.2-2.8C212.3,317.1,211.7,317,211.2,317.4 M-36.7,323.7
		c-0.1,0.1-1.4,1.4-2.7,2.9c-4.6,5-15,16.1-17.5,18.8c-1.2,1.3-1.4,2-0.5,2.7c0.9,0.7,0.3,1.3,14.5-14c1.8-1.9,3.8-4.1,4.4-4.8
		c4.3-4.5,4.3-4.5,3.6-5.4C-35.4,323.4-36.2,323.3-36.7,323.7 M-14.7,326.6c-1,1-1.7,0.2,10.3,11.3c2.5,2.3,5.2,4.9,6,5.6
		c5.5,5.2,6.3,5.9,6.9,5.9c0.6,0,1.3-0.6,1.3-1.1c0-0.6,0.9,0.2-13.1-12.8c-4.2-3.9-8.2-7.6-8.8-8.2C-13.3,326.2-14,326-14.7,326.6
		 M-28.8,330.6c-0.1,0-1.7,1.7-3.5,3.6c-1.8,1.9-3.7,4-4.3,4.6c-0.6,0.6-1.6,1.7-2.3,2.5c-1.5,1.6-4.1,4.4-8.4,9
		c-3.2,3.4-3.3,3.6-2.9,4.3c0.6,1.2,1.5,0.9,3.6-1.4c1-1,2.9-3.1,4.2-4.5c1.4-1.5,4-4.3,5.9-6.3c1.9-2,4.4-4.7,5.6-6
		c1.2-1.3,2.5-2.7,3-3.2C-26.6,331.8-27.2,329.9-28.8,330.6 M17.3,351.7c-6.5,1.5-7.3,11.6-1.2,14.4c3.1,1.4,7.5,0,9-2.9
		C28.3,357.1,23.6,350.2,17.3,351.7 M21.1,353.6c3.3,1.4,4,7.9,1,10.3c-3.6,2.9-8.1,0.2-8.1-4.8C14.1,354.5,17.3,352,21.1,353.6
		 M-64,354.5c-3.8,0.7-6.1,4.5-5.5,8.9c1.2,7.8,11.9,8.4,13.7,0.8C-54.5,358.4-58.6,353.5-64,354.5 M-60.7,356.4
		c2.5,1.1,3.7,4.5,2.8,7.8c-1.4,5.1-8.3,4.8-9.5-0.4C-68.6,358.8-64.9,354.6-60.7,356.4 M22.6,419.3c1.9,1.1,6.6,3.8,10.5,6.1
		c16.2,9.3,25,14.4,32.8,18.9l1.9,1.1l0,28.2l0,28.2l-0.6,0.4c-0.3,0.2-2.9,1.7-5.7,3.3c-2.8,1.6-6.9,4-9.2,5.3
		c-2.2,1.3-7,4.1-10.6,6.1c-9.6,5.5-21.6,12.5-22.2,12.8l-0.5,0.3l-3.4-2c-1.9-1.1-7.1-4.1-11.6-6.7c-10.6-6.1-23-13.3-28.8-16.6
		c-2.5-1.5-4.7-2.8-4.9-2.9c-0.3-0.2-0.3-1.7-0.3-28.3l0-28.1l1.1-0.6c1.1-0.6,10.7-6.2,25.5-14.7c4.5-2.6,11.4-6.6,15.2-8.8
		c3.8-2.2,7-4,7-4C19.1,417.3,20.7,418.2,22.6,419.3 M10.6,431.3c-8.5,4.9-20.5,11.9-25.8,14.9c-5.5,3.2-5.3,3-5.4,3.9
		c-0.1,0.8,0.4,1.2,1.1,1.2c0.3,0,3.4-1.7,8.3-4.5c4.3-2.5,10.5-6.1,13.8-8c17.9-10.3,16.6-9.5,16.6-10.4c0-0.7-0.5-1.2-1.2-1.1
		C17.6,427.3,15.5,428.4,10.6,431.3 M119.9,439.4c-0.2,0.2-0.4,0.6-0.4,0.7c0,0.3,0,0.4,6.4,9.2c2.8,3.9,7.9,10.9,11.3,15.6
		c3.4,4.7,6.3,8.6,6.4,8.7c0.5,0.4,1.3,0.3,1.7-0.2c0.6-0.8,0.5-1-2-4.3c-2.7-3.6-6.2-8.4-8.8-12c-1.6-2.1-5.1-7.1-7.9-10.9l-5.1-7
		l-0.7,0C120.3,439,120.1,439,119.9,439.4 M57.7,451.2c-0.4,0.5-0.6,43.8-0.1,44.7c0.3,0.5,0.8,0.8,1.5,0.6c1-0.2,0.9,0.9,0.9-23
		c0-24.7,0.1-22.6-1.3-22.6C58.3,450.8,57.9,450.9,57.7,451.2 M-20.2,496.1c-0.5,0.4-0.6,1.2-0.2,1.7c0.1,0.2,3.3,2,7,4.2
		c3.8,2.2,10.7,6.2,15.5,8.9c4.8,2.8,10.2,5.9,12.1,7c3.6,2.1,4,2.2,4.6,1.6c1-1,0.6-1.5-2.9-3.5c-1.2-0.7-5.1-3-8.8-5
		c-3.6-2.1-9.7-5.6-13.6-7.8s-8.3-4.8-9.9-5.7C-19.5,495.7-19.6,495.6-20.2,496.1 M118.3,521.5v7.3h0.9h0.9l0-5.7l0-5.7l3.8,5.7
		l3.8,5.7l1,0l1,0v-7.3v-7.3h-0.9H128v5.6c0,3.7-0.1,5.6-0.2,5.5c-0.1-0.1-1.8-2.6-3.8-5.6l-3.6-5.4l-1,0l-1,0V521.5 M133.2,521.5
		v7.3h1h1v-3.5v-3.5l3.8,0l3.8,0l0,3.5l0,3.5h0.9h0.9v-7.3v-7.3h-0.9h-0.9l0,3l0,3l-3.8,0l-3.8,0v-3v-3h-1h-1V521.5"/>
</g>
</svg>
